# xmcd
#
# Track frame offsets: 
#        150
#        14621
#        26029
#        39924
#        50024
#        62935
#        73131
#        83594
#        96232
#        108138
#        119867
#        129793
#        143541
#        153950
#        167080
#        177861
#        189902
#        201448
#        211590
#        222392
#        233899
#        245958
#        256499
#        270727
#        283500
#        296357
#
# Disc length: 4097 seconds
#
# Revision: 1
# Processed by: cddbd v1.5.2PL0 Copyright (c) Steve Scherf et al.
# Submitted via: ExactAudioCopy v1.0b1
#
DISCID=830fff1a
DTITLE=Various Artist - Fine Gals, Fast Women and Wailin' Daddies - Disc 2
DYEAR=2004
DGENRE=R&B
TTITLE0=Milt Trenier and His Solid Six - You're Killing Me
TTITLE1=Jimmy Witherspoon - Fast Women And Sloe Gin
TTITLE2=Amos Milburn - Women, Women
TTITLE3=Little Esther - Flesh, Blood And Bones
TTITLE4=Big Mama Thornton - Nightmare
TTITLE5=Mel Walker and The Johnny Otis Orchestra - The Candle's Burnin' 
TTITLE5=Low
TTITLE6=Bobby Nunn and The Robins - That's What The Good Book Says
TTITLE7=Roy Hawkins - Gloom And Misery All Around
TTITLE8=Bull Moose Jackson - Nosey Joe
TTITLE9=Little Esther and Bobby Nunn - Saturday Night Daddy
TTITLE10=Jimmy Witherspoon - Corn Whiskey
TTITLE11=Floyd Dixon - Too Much Jelly Roll
TTITLE12=Young Jessie - I Smell A Rat
TTITLE13=Little Willie Littlefield - Blood Is Redder Than Wine
TTITLE14=Jimmy Witherspoon - One Fine Gal
TTITLE15=Big John Greer - Drinkin' Fool
TTITLE16=Mel Walker and The Johnny Otis Orchestra - The Last Mile
TTITLE17=Beverly Wright and The Preston Love Orchestra - Kissin' Boogie
TTITLE18=Linda Hopkins - Three Time Loser
TTITLE19=Linda Hopkins - Tears Of Joy
TTITLE20=Little Esther - Street Lights
TTITLE21=Little Esther and Little Willie Littlefield - Turn The Lamps Do
TTITLE21=wn Low
TTITLE22=Jimmy Witherspoon - Back Door Blues
TTITLE23=Big Mama Thornton - Hound Dog
TTITLE24=Rufus Thomas - Bear Cat
TTITLE25=Curley Bridges with Frank Motley and His Crew - New Hound Dog
EXTD=
EXTT0=
EXTT1=
EXTT2=
EXTT3=
EXTT4=
EXTT5=
EXTT6=
EXTT7=
EXTT8=
EXTT9=
EXTT10=
EXTT11=
EXTT12=
EXTT13=
EXTT14=
EXTT15=
EXTT16=
EXTT17=
EXTT18=
EXTT19=
EXTT20=
EXTT21=
EXTT22=
EXTT23=
EXTT24=
EXTT25=
PLAYORDER=
